<svg width="1280" height="720" viewBox="0 0 1280 720" xmlns="http://www.w3.org/2000/svg">
  <defs>
    <linearGradient id="sky" x1="0" y1="0" x2="0" y2="1">
      <stop offset="0%" stop-color="#2a0a3d"/>
      <stop offset="35%" stop-color="#7c1f6b"/>
      <stop offset="60%" stop-color="#ff4500"/>
      <stop offset="100%" stop-color="#ffb347"/>
    </linearGradient>
    <linearGradient id="sun" x1="0" y1="0" x2="0" y2="1">
      <stop offset="0%" stop-color="#fff7d6"/>
      <stop offset="100%" stop-color="#ff8a1e"/>
    </linearGradient>
    <linearGradient id="plane" x1="0" y1="0" x2="1" y2="1">
      <stop offset="0%" stop-color="#eafcff"/>
      <stop offset="100%" stop-color="#5ad1ff"/>
    </linearGradient>
    <linearGradient id="planeShade" x1="0" y1="0" x2="1" y2="1">
      <stop offset="0%" stop-color="#00c8ff"/>
      <stop offset="100%" stop-color="#0077aa"/>
    </linearGradient>
    <radialGradient id="glow" cx="50%" cy="50%" r="50%">
      <stop offset="0%" stop-color="#00ffe0" stop-opacity="0.55"/>
      <stop offset="100%" stop-color="#00ffe0" stop-opacity="0"/>
    </radialGradient>
  </defs>

  <rect width="1280" height="720" fill="url(#sky)"/>

  <g fill="#fff7d6">
    <circle cx="120" cy="90" r="1.6" opacity="0.8"/>
    <circle cx="220" cy="60" r="1.2" opacity="0.6"/>
    <circle cx="340" cy="110" r="1.8" opacity="0.7"/>
    <circle cx="900" cy="70" r="1.4" opacity="0.7"/>
    <circle cx="1020" cy="120" r="1.8" opacity="0.6"/>
    <circle cx="1150" cy="80" r="1.3" opacity="0.7"/>
    <circle cx="70" cy="180" r="1.3" opacity="0.5"/>
    <circle cx="1180" cy="200" r="1.5" opacity="0.5"/>
  </g>

  <circle cx="640" cy="430" r="180" fill="url(#sun)" opacity="0.95"/>

  <g stroke="#ffd9a0" stroke-width="1.5" fill="none" opacity="0.5">
    <path d="M 60,260 Q 160,230 260,260 Q 340,285 420,260"/>
    <path d="M 880,240 Q 970,215 1060,240 Q 1140,262 1220,240"/>
  </g>

  <g stroke="#ff2fb0" stroke-width="2" opacity="0.55">
    <line x1="0" y1="500" x2="1280" y2="500"/>
    <line x1="0" y1="545" x2="1280" y2="545"/>
    <line x1="0" y1="600" x2="1280" y2="600"/>
    <line x1="0" y1="665" x2="1280" y2="665"/>
  </g>
  <g stroke="#ff2fb0" stroke-width="2" opacity="0.4">
    <line x1="100" y1="470" x2="-160" y2="720"/>
    <line x1="280" y1="470" x2="120" y2="720"/>
    <line x1="460" y1="470" x2="400" y2="720"/>
    <line x1="640" y1="470" x2="640" y2="720"/>
    <line x1="820" y1="470" x2="880" y2="720"/>
    <line x1="1000" y1="470" x2="1160" y2="720"/>
    <line x1="1180" y1="470" x2="1440" y2="720"/>
  </g>

  <g transform="translate(180,470) rotate(-13)">
    <polygon points="-14,-150 14,-150 22,-140 -6,150 -22,142" fill="#ff9d4d"/>
    <polygon points="14,-150 22,-140 -6,150 6,142" fill="#c94f13"/>
  </g>

  <g transform="translate(1080,440) rotate(11)">
    <polygon points="-11,-88 11,-88 17,-80 -5,92 -17,86" fill="#9aa3ab"/>
    <polygon points="11,-88 17,-80 -5,92 5,86" fill="#5c666f"/>
  </g>

  <g transform="translate(1030,570)">
    <polygon points="0,-24 19,0 0,9 -19,0" fill="#ffce54"/>
    <polygon points="0,-24 19,0 0,9" fill="#e2a020"/>
  </g>

  <g transform="translate(250,580)">
    <circle cx="0" cy="0" r="9" fill="#ffd400"/>
  </g>
  <g transform="translate(940,610)">
    <circle cx="0" cy="0" r="7" fill="#ffd400"/>
  </g>

  <g stroke="#3fe0ff" stroke-linecap="round" opacity="0.55">
    <line x1="600" y1="470" x2="500" y2="560" stroke-width="4"/>
    <line x1="630" y1="475" x2="555" y2="580" stroke-width="3"/>
    <line x1="660" y1="470" x2="605" y2="590" stroke-width="2"/>
  </g>

  <g transform="translate(760,560) rotate(6)">
    <polygon points="-8,-56 8,-56 12,-50 -3,58 -12,54" fill="#ff9d4d" opacity="0.85"/>
    <polygon points="8,-56 12,-50 -3,58 3,54" fill="#c94f13" opacity="0.85"/>
  </g>

  <g transform="translate(340,600) rotate(-9)">
    <polygon points="-10,-70 10,-70 15,-63 -4,72 -15,67" fill="#9aa3ab"/>
    <polygon points="10,-70 15,-63 -4,72 4,67" fill="#5c666f"/>
  </g>

  <g transform="translate(60,540) rotate(15)">
    <polygon points="0,-32 26,10 0,26 -26,10" fill="#7ce0c8"/>
    <polygon points="0,-32 26,10 0,26" fill="#3fa688"/>
  </g>

  <g transform="translate(500,650)">
    <polygon points="0,-20 16,0 0,7 -16,0" fill="#ffce54"/>
    <polygon points="0,-20 16,0 0,7" fill="#e2a020"/>
  </g>

  <g transform="translate(1150,600) rotate(-6)">
    <polygon points="0,-28 22,8 0,22 -22,8" fill="#ff6f9c"/>
    <polygon points="0,-28 22,8 0,22" fill="#c93f6e"/>
  </g>

  <g transform="translate(920,630)">
    <circle cx="0" cy="0" r="10" fill="#ffd400"/>
  </g>

  <g transform="translate(430,500) rotate(20)">
    <circle cx="0" cy="0" r="6" fill="#ffd400" opacity="0.9"/>
  </g>

  <g transform="translate(640,380) rotate(-38)">
    <circle cx="0" cy="0" r="60" fill="url(#glow)"/>
    <polygon points="0,-58 43,38 0,20 -43,38" fill="url(#plane)"/>
    <polygon points="0,-58 43,38 0,20" fill="url(#planeShade)"/>
    <polygon points="0,20 -13,43 0,33 13,43" fill="#0d6f96"/>
  </g>

  <text x="640" y="200" text-anchor="middle" font-family="Trebuchet MS, Verdana, sans-serif" font-weight="700" font-size="96" letter-spacing="10" fill="#ffffff" opacity="0.95">LLOF</text>
  <text x="640" y="240" text-anchor="middle" font-family="Trebuchet MS, Verdana, sans-serif" font-weight="400" font-size="22" letter-spacing="8" fill="#00ffe0">TERMINAL LOOP</text>
</svg>
